<svg width="190" height="37" viewBox="0 0 190 37" fill="none" xmlns="http://www.w3.org/2000/svg">
<path d="M13.6667 6.83333V30.1667M21.9162 10.2504L5.41709 26.7496M25.3333 18.5H2M21.9162 26.7496L5.41709 10.2504" stroke="#080F17" stroke-width="2.5" stroke-linecap="round" stroke-linejoin="round"/>
<path d="M35.1023 30V8.047H38.9013V22.431L37.4513 21.996L44.8753 14.224H49.6023L43.7733 20.575L49.7183 30H45.3683L40.2063 21.822L42.4683 21.358L37.7123 26.462L38.9013 24.142V30H35.1023ZM59.0384 30.348C57.4144 30.348 55.9934 29.9807 54.7754 29.246C53.5574 28.5113 52.61 27.5157 51.9334 26.259C51.2567 25.0023 50.9184 23.6103 50.9184 22.083C50.9184 20.4977 51.2567 19.096 51.9334 17.878C52.6294 16.6407 53.567 15.6643 54.7464 14.949C55.945 14.2337 57.279 13.876 58.7484 13.876C59.9857 13.876 61.0684 14.079 61.9964 14.485C62.9437 14.891 63.746 15.4517 64.4034 16.167C65.0607 16.8823 65.5634 17.704 65.9114 18.632C66.2594 19.5407 66.4334 20.5267 66.4334 21.59C66.4334 21.8607 66.414 22.141 66.3754 22.431C66.356 22.721 66.3077 22.9723 66.2304 23.185H54.0504V20.285H64.0844L62.2864 21.648C62.4604 20.7587 62.412 19.966 62.1414 19.27C61.89 18.574 61.4647 18.023 60.8654 17.617C60.2854 17.211 59.5797 17.008 58.7484 17.008C57.9557 17.008 57.25 17.211 56.6314 17.617C56.0127 18.0037 55.539 18.5837 55.2104 19.357C54.901 20.111 54.785 21.0293 54.8624 22.112C54.785 23.0787 54.9107 23.939 55.2394 24.693C55.5874 25.4277 56.09 25.998 56.7474 26.404C57.424 26.81 58.1974 27.013 59.0674 27.013C59.9374 27.013 60.672 26.8293 61.2714 26.462C61.89 26.0947 62.3734 25.6017 62.7214 24.983L65.7954 26.491C65.486 27.245 65.0027 27.912 64.3454 28.492C63.688 29.072 62.905 29.5263 61.9964 29.855C61.107 30.1837 60.121 30.348 59.0384 30.348ZM69.3132 30V8.047H73.1122V30H69.3132ZM76.6198 30V14.224H80.4188V30H76.6198ZM76.6198 12.455V8.395H80.4188V12.455H76.6198ZM89.9295 30.348C88.2475 30.348 86.7781 29.9517 85.5215 29.159C84.2841 28.347 83.4335 27.2547 82.9695 25.882L85.8115 24.519C86.2175 25.4083 86.7781 26.1043 87.4935 26.607C88.2281 27.1097 89.0401 27.361 89.9295 27.361C90.6255 27.361 91.1765 27.2063 91.5825 26.897C91.9885 26.5877 92.1915 26.1817 92.1915 25.679C92.1915 25.3697 92.1045 25.1183 91.9305 24.925C91.7758 24.7123 91.5535 24.5383 91.2635 24.403C90.9928 24.2483 90.6931 24.1227 90.3645 24.026L87.7835 23.301C86.4495 22.9143 85.4345 22.3247 84.7385 21.532C84.0618 20.7393 83.7235 19.8017 83.7235 18.719C83.7235 17.7523 83.9651 16.9113 84.4485 16.196C84.9511 15.4613 85.6375 14.891 86.5075 14.485C87.3968 14.079 88.4118 13.876 89.5525 13.876C91.0411 13.876 92.3558 14.2337 93.4965 14.949C94.6371 15.6643 95.4491 16.6697 95.9325 17.965L93.0325 19.328C92.7618 18.6127 92.3075 18.0423 91.6695 17.617C91.0315 17.1917 90.3161 16.979 89.5235 16.979C88.8855 16.979 88.3828 17.124 88.0155 17.414C87.6481 17.704 87.4645 18.081 87.4645 18.545C87.4645 18.835 87.5418 19.0863 87.6965 19.299C87.8511 19.5117 88.0638 19.6857 88.3345 19.821C88.6245 19.9563 88.9531 20.082 89.3205 20.198L91.8435 20.952C93.1388 21.3387 94.1345 21.9187 94.8305 22.692C95.5458 23.4653 95.9035 24.4127 95.9035 25.534C95.9035 26.4813 95.6521 27.3223 95.1495 28.057C94.6468 28.7723 93.9508 29.333 93.0615 29.739C92.1721 30.145 91.1281 30.348 89.9295 30.348ZM98.823 30V14.224H102.622V30H98.823ZM98.823 12.455V8.395H102.622V12.455H98.823ZM106.13 30V14.224H109.697V17.878L109.291 17.269C109.581 16.1283 110.161 15.2777 111.031 14.717C111.901 14.1563 112.925 13.876 114.105 13.876C115.4 13.876 116.541 14.2143 117.527 14.891C118.513 15.5677 119.151 16.457 119.441 17.559L118.368 17.646C118.851 16.3893 119.576 15.4517 120.543 14.833C121.509 14.195 122.621 13.876 123.878 13.876C124.999 13.876 125.995 14.1273 126.865 14.63C127.754 15.1327 128.45 15.8383 128.953 16.747C129.455 17.6363 129.707 18.6707 129.707 19.85V30H125.908V20.749C125.908 20.053 125.782 19.4537 125.531 18.951C125.279 18.4483 124.931 18.0617 124.487 17.791C124.042 17.501 123.501 17.356 122.863 17.356C122.263 17.356 121.732 17.501 121.268 17.791C120.804 18.0617 120.446 18.4483 120.195 18.951C119.943 19.4537 119.818 20.053 119.818 20.749V30H116.019V20.749C116.019 20.053 115.893 19.4537 115.642 18.951C115.39 18.4483 115.033 18.0617 114.569 17.791C114.124 17.501 113.592 17.356 112.974 17.356C112.374 17.356 111.843 17.501 111.379 17.791C110.915 18.0617 110.557 18.4483 110.306 18.951C110.054 19.4537 109.929 20.053 109.929 20.749V30H106.13ZM134.719 30V25.94H138.547V30H134.719ZM152.494 30.348C151.353 30.348 150.299 30.1257 149.333 29.681C148.385 29.217 147.631 28.5597 147.071 27.709L147.448 26.955V30H143.881V8.047H147.68V17.356L147.1 16.573C147.641 15.7223 148.376 15.065 149.304 14.601C150.232 14.1177 151.305 13.876 152.523 13.876C154.011 13.876 155.355 14.2433 156.554 14.978C157.752 15.7127 158.7 16.6987 159.396 17.936C160.111 19.1733 160.469 20.5653 160.469 22.112C160.469 23.6393 160.121 25.0313 159.425 26.288C158.729 27.5447 157.781 28.5403 156.583 29.275C155.384 29.9903 154.021 30.348 152.494 30.348ZM152.059 26.868C152.929 26.868 153.702 26.665 154.379 26.259C155.055 25.853 155.577 25.2923 155.945 24.577C156.331 23.8617 156.525 23.04 156.525 22.112C156.525 21.184 156.331 20.372 155.945 19.676C155.577 18.9607 155.055 18.4 154.379 17.994C153.702 17.5687 152.929 17.356 152.059 17.356C151.227 17.356 150.473 17.559 149.797 17.965C149.139 18.371 148.617 18.9413 148.231 19.676C147.863 20.3913 147.68 21.2033 147.68 22.112C147.68 23.04 147.863 23.8617 148.231 24.577C148.617 25.2923 149.139 25.853 149.797 26.259C150.473 26.665 151.227 26.868 152.059 26.868ZM168.15 30.348C167.048 30.348 166.091 30.1643 165.279 29.797C164.467 29.4297 163.839 28.9077 163.394 28.231C162.949 27.535 162.727 26.7327 162.727 25.824C162.727 24.954 162.92 24.1807 163.307 23.504C163.694 22.808 164.293 22.228 165.105 21.764C165.917 21.3 166.942 20.9713 168.179 20.778L173.341 19.937V22.837L168.904 23.591C168.15 23.7263 167.589 23.968 167.222 24.316C166.855 24.664 166.671 25.1183 166.671 25.679C166.671 26.2203 166.874 26.6553 167.28 26.984C167.705 27.2933 168.227 27.448 168.846 27.448C169.639 27.448 170.335 27.2837 170.934 26.955C171.553 26.607 172.026 26.1333 172.355 25.534C172.703 24.9347 172.877 24.2773 172.877 23.562V19.502C172.877 18.8253 172.606 18.2647 172.065 17.82C171.543 17.356 170.847 17.124 169.977 17.124C169.165 17.124 168.44 17.3463 167.802 17.791C167.183 18.2163 166.729 18.7867 166.439 19.502L163.336 17.994C163.645 17.1627 164.129 16.4473 164.786 15.848C165.463 15.2293 166.255 14.746 167.164 14.398C168.073 14.05 169.059 13.876 170.122 13.876C171.417 13.876 172.558 14.1177 173.544 14.601C174.53 15.065 175.294 15.7223 175.835 16.573C176.396 17.4043 176.676 18.3807 176.676 19.502V30H173.08V27.303L173.892 27.245C173.486 27.9217 173.003 28.492 172.442 28.956C171.881 29.4007 171.243 29.7487 170.528 30C169.813 30.232 169.02 30.348 168.15 30.348ZM180.187 30V14.224H183.754V17.733L183.464 17.211C183.832 16.0317 184.402 15.21 185.175 14.746C185.968 14.282 186.915 14.05 188.017 14.05H188.945V17.414H187.582C186.5 17.414 185.63 17.7523 184.972 18.429C184.315 19.0863 183.986 20.0143 183.986 21.213V30H180.187Z" fill="#080F17"/>
</svg>
